<svg xmlns="http://www.w3.org/2000/svg" width="12.569" height="12.042" viewBox="0 0 12.569 12.042">
  <path id="star" d="M12.3,6.5a.9.9,0,0,0-.5-1.537L8.752,4.524a.4.4,0,0,1-.3-.218L7.092,1.549a.9.9,0,0,0-1.617,0L4.115,4.307a.4.4,0,0,1-.3.218L.772,4.967A.9.9,0,0,0,.272,6.5l2.2,2.146A.4.4,0,0,1,2.589,9l-.519,3.031a.882.882,0,0,0,.2.731.911.911,0,0,0,1.111.219L6.1,11.553a.407.407,0,0,1,.37,0l2.722,1.431a.892.892,0,0,0,.419.1.9.9,0,0,0,.692-.324.882.882,0,0,0,.2-.731L9.979,9a.4.4,0,0,1,.115-.352Z" transform="translate(0.001 -1.047)" fill="#fff"/>
</svg>
